<?xml version="1.0" standalone="no"?>
<!DOCTYPE svg PUBLIC "-//W3C//DTD SVG 20010904//EN"
 "http://www.w3.org/TR/2001/REC-SVG-20010904/DTD/svg10.dtd">
<svg version="1.0" xmlns="http://www.w3.org/2000/svg"
 width="840.000000pt" height="840.000000pt" viewBox="0 0 840.000000 840.000000"
 preserveAspectRatio="xMidYMid meet">
<metadata>
Created by potrace 1.11, written by Peter Selinger 2001-2013
</metadata>
<g transform="translate(0.000000,840.000000) scale(0.100000,-0.100000)"
fill="#000000" stroke="none">
<path d="M4061 7180 c-96 -14 -258 -56 -352 -93 l-84 -33 -73 -99 c-272 -373
-442 -731 -442 -931 0 -174 219 -824 431 -1277 45 -95 91 -195 104 -223 l23
-51 -107 -184 c-450 -773 -958 -1504 -1407 -2029 -130 -152 -465 -487 -584
-585 -52 -43 -96 -82 -98 -86 -3 -8 -9 -7 701 -233 268 -86 494 -156 502 -156
7 0 71 73 142 163 502 633 1007 1325 1354 1855 l106 163 28 -48 c91 -155 463
-728 613 -943 335 -478 750 -1035 773 -1035 20 0 1238 768 1238 780 0 6 -44
31 -97 58 -322 158 -770 622 -1288 1333 -165 226 -400 571 -531 778 l-95 150
115 231 c198 393 316 671 418 980 27 82 53 174 58 204 34 219 -129 578 -460
1011 -149 195 -152 198 -249 226 -182 54 -315 75 -500 79 -96 2 -204 0 -239
-5z m320 -666 c68 -13 162 -40 266 -79 14 -5 -42 -137 -204 -485 -133 -283
-176 -370 -183 -370 -16 0 -420 801 -420 833 0 24 192 96 295 110 69 9 168 6
246 -9z"/>
</g>
</svg>
